<?xml version="1.0" encoding="UTF-8"?>
<svg version="1.1" xmlns="http://www.w3.org/2000/svg" width="225" height="225">
<path d="M0 0 C74.25 0 148.5 0 225 0 C225 74.25 225 148.5 225 225 C150.75 225 76.5 225 0 225 C0 150.75 0 76.5 0 0 Z " fill="#FEFEFE" transform="translate(0,0)"/>
<path d="M0 0 C5.89228091 4.75517407 9.34903643 9.95418412 10.78125 17.4375 C11.70556873 26.20569015 10.20648678 33.93348883 6.03125 41.6875 C1.2476069 47.5341749 -4.6784995 51.54575395 -10.984375 55.62890625 C-15.55703624 59.33020372 -16.79932117 63.8689715 -18.21875 69.4375 C-20.69798801 69.46435095 -23.1769384 69.48426547 -25.65625 69.5 C-26.36330078 69.50837891 -27.07035156 69.51675781 -27.79882812 69.52539062 C-29.60568559 69.53403588 -31.41262603 69.48970011 -33.21875 69.4375 C-34.89513146 67.76111854 -34.54962882 65.80366359 -34.65625 63.5 C-34.5954509 56.78604243 -32.02992004 52.78002053 -28.21875 47.4375 C-27.11058377 45.79435697 -26.0062282 44.1486356 -24.90625 42.5 C-24.41511719 41.78972656 -23.92398438 41.07945313 -23.41796875 40.34765625 C-21.35843577 37.06716236 -21.03639315 34.22551619 -20.96875 30.4375 C-20.94296875 29.57125 -20.9171875 28.705 -20.890625 27.8125 C-21.05376176 25.42618 -21.05376176 25.42618 -22.34765625 23.6484375 C-26.55344264 20.92652981 -32.42490274 21.9898476 -37.21875 22.4375 C-40.0128327 23.23893751 -42.52935737 24.3128449 -45.21875 25.4375 C-47.43359375 25.02734375 -47.43359375 25.02734375 -49.21875 24.4375 C-50.43314927 20.08595354 -50.4774173 15.93073591 -50.53125 11.4375 C-50.56025391 10.63054687 -50.58925781 9.82359375 -50.61914062 8.9921875 C-50.68273291 3.06342984 -50.68273291 3.06342984 -48.39453125 -0.0234375 C-34.85103825 -9.60357438 -13.52035332 -9.30909573 0 0 Z " fill="#2B2F32" transform="translate(136.21875,83.5625)"/>
<path d="M0 0 C3.30955519 -0.3938547 4.64968141 -0.25316662 7.39453125 1.73046875 C21.84143019 16.41075862 29.44859608 32.99556905 29.29589844 53.546875 C28.84392379 70.95172909 21.39943354 87.71699307 9 100 C-4.83482095 111.72835789 -4.83482095 111.72835789 -11.875 112.1875 C-12.926875 112.0946875 -12.926875 112.0946875 -14 112 C-14.495 109.525 -14.495 109.525 -15 107 C-14.0821875 106.43152344 -13.164375 105.86304688 -12.21875 105.27734375 C3.36718745 95.52789672 14.31504766 85.18982701 19.34375 66.9375 C22.29403684 53.73145413 22.03740184 41.59350461 17 29 C16.67257813 28.14019531 16.34515625 27.28039062 16.0078125 26.39453125 C12.27432027 17.82385018 5.51812394 11.51812394 -1 5 C-0.625 2.375 -0.625 2.375 0 0 Z " fill="#2D3032" transform="translate(150,60)"/>
<path d="M0 0 C0.78375 0.04125 1.5675 0.0825 2.375 0.125 C3.16015625 2.33203125 3.16015625 2.33203125 3.375 5.125 C1.49609375 7.44921875 1.49609375 7.44921875 -1.1875 9.8125 C-11.82882214 19.87419706 -18.52047618 33.79620368 -18.96850586 48.5078125 C-19.16394266 63.58523142 -15.8327126 75.88817061 -6.625 88.125 C-5.87669922 89.18074219 -5.87669922 89.18074219 -5.11328125 90.2578125 C0.06427653 96.9090832 7.27059333 100.82308541 14.375 105.125 C15.365 105.785 16.355 106.445 17.375 107.125 C17.045 108.775 16.715 110.425 16.375 112.125 C7.06393304 111.9180874 -1.00579577 105.35453653 -7.65234375 99.25390625 C-14.97161541 91.3548903 -20.10655072 82.28021046 -23.625 72.125 C-23.94339844 71.279375 -24.26179688 70.43375 -24.58984375 69.5625 C-30.01953585 53.14831558 -26.66428976 35.11603676 -19.10498047 20.02636719 C-15.35335772 13.06511685 -10.25733708 7.6056243 -4.625 2.125 C-2.625 0.125 -2.625 0.125 0 0 Z " fill="#2C2F32" transform="translate(72.625,59.875)"/>
<path d="M0 0 C1.04470459 0.06993164 2.08940918 0.13986328 3.16577148 0.21191406 C9.36717078 0.72154858 14.83146896 1.90544716 20.625 4.1875 C15.73075362 6.71092618 11.06324557 7.4063485 5.625 8.1875 C4.97015625 8.28595215 4.3153125 8.3844043 3.640625 8.48583984 C-22.39988223 12.22203488 -53.8963082 12.01418984 -79.375 5.1875 C-65.33523545 -8.85226455 -17.92283194 -1.26480704 0 0 Z " fill="#E2E2E2" transform="translate(141.375,195.8125)"/>
<path d="M0 0 C3.97911581 2.06324523 6.64246569 4.20362669 9 8 C9.87141484 13.1970867 9.59466314 17.71918709 7.375 22.5 C3.7053959 26.36274116 0.30510501 28.12364837 -5 28.4375 C-9.26074445 28.25012501 -11.77844151 26.84695866 -15 24 C-18.29799116 19.27287934 -18.90379228 14.60351216 -18 9 C-14.06375621 1.12751242 -8.49691024 -1.36370164 0 0 Z " fill="#2B2E31" transform="translate(117,158)"/>
<path d="M0 0 C2.77937181 0.01346279 5.55858468 0.00814488 8.33797455 0.00315666 C20.99432371 -0.01421853 33.6323257 0.08255401 46.25097656 1.15460205 C47.10290588 1.22346115 47.95483521 1.29232025 48.83258057 1.36326599 C54.47922171 1.92254266 59.52478844 3.32311315 64.82910156 5.3225708 C64.49910156 6.3125708 64.16910156 7.3025708 63.82910156 8.3225708 C59.0776816 10.44005144 54.19879555 10.90017394 49.07910156 11.3850708 C47.81151001 11.5085791 47.81151001 11.5085791 46.51831055 11.63458252 C43.95616976 11.87618108 41.39316614 12.10241614 38.82910156 12.3225708 C36.85876953 12.49466064 36.85876953 12.49466064 34.84863281 12.67022705 C12.59707096 14.22981332 -9.98356895 13.8762956 -32.23339844 12.4475708 C-33.47951904 12.36917969 -34.72563965 12.29078857 -36.00952148 12.21002197 C-54.85517181 10.86638855 -54.85517181 10.86638855 -60.17089844 7.3225708 C-60.17089844 6.6625708 -60.17089844 6.0025708 -60.17089844 5.3225708 C-44.04879717 -3.71072313 -18.15990969 -0.11916372 0 0 Z M-28.04589844 2.1350708 C-29.04242432 2.20508301 -30.0389502 2.27509521 -31.06567383 2.347229 C-37.1344984 2.86913855 -42.49362088 4.11122638 -48.17089844 6.3225708 C-23.61920541 19.07211981 26.19116355 14.33701262 51.82910156 7.3225708 C51.33410156 6.3325708 51.33410156 6.3325708 50.82910156 5.3225708 C48.49870886 4.68086846 46.26438169 4.18259779 43.89160156 3.7600708 C43.16851807 3.63076172 42.44543457 3.50145264 41.70043945 3.3682251 C19.08115928 -0.43449997 -5.25123156 0.43248599 -28.04589844 2.1350708 Z " fill="#F1F1F1" transform="translate(110.1708984375,193.67742919921875)"/>
<path d="M0 0 C1.97202393 0.00507568 1.97202393 0.00507568 3.98388672 0.01025391 C12.1391315 0.04554352 20.28829863 0.17884236 28.4375 0.5 C29.33621826 0.53077637 30.23493652 0.56155273 31.16088867 0.59326172 C32.39995972 0.65151123 32.39995972 0.65151123 33.6640625 0.7109375 C34.37385254 0.7423584 35.08364258 0.7737793 35.81494141 0.80615234 C38.11021701 1.1725212 39.79388362 1.99536755 41.8125 3.125 C33.28209836 8.81193442 20.97766032 7.46596903 11.08911133 7.44067383 C8.51535436 7.43751882 5.94275594 7.46102676 3.36914062 7.48632812 C-6.57266687 7.52254535 -15.54016717 6.75121286 -25.1875 4.125 C-24.5275 3.135 -23.8675 2.145 -23.1875 1.125 C-15.53653037 -0.26608539 -7.75442256 -0.02857048 0 0 Z " fill="#D1D1D1" transform="translate(104.1875,196.875)"/>
<path d="M0 0 C3.43203219 0.8517906 5.0647359 2.79004399 7.15625 5.53515625 C8.58929064 8.40123754 8.46269155 10.34816408 8.15625 13.53515625 C6.15625 16.91015625 6.15625 16.91015625 4.15625 19.53515625 C4.81625 19.53515625 5.47625 19.53515625 6.15625 19.53515625 C6.15625 20.19515625 6.15625 20.85515625 6.15625 21.53515625 C4.17625 21.86515625 2.19625 22.19515625 0.15625 22.53515625 C-0.17375 21.54515625 -0.50375 20.55515625 -0.84375 19.53515625 C-1.75125 19.61765625 -2.65875 19.70015625 -3.59375 19.78515625 C-6.84375 19.53515625 -6.84375 19.53515625 -9.15625 18.09765625 C-11.61278231 14.36736644 -12.26587281 10.9789582 -11.84375 6.53515625 C-9.67886383 0.96992532 -5.57670237 -0.36248565 0 0 Z " fill="#303336" transform="translate(92.84375,42.46484375)"/>
<path d="M0 0 C1.98 0 3.96 0 6 0 C6.33 4.62 6.66 9.24 7 14 C8.32 14 9.64 14 11 14 C11.33 9.38 11.66 4.76 12 0 C13.65 0 15.3 0 17 0 C17.10787818 2.77186988 17.18723327 5.53955537 17.25 8.3125 C17.30027344 9.49102539 17.30027344 9.49102539 17.3515625 10.69335938 C17.4499711 16.47486443 17.4499711 16.47486443 15.26953125 19.01953125 C12.80860998 20.08268312 11.11127541 20.40214493 8.4375 20.375 C7.67308594 20.38273437 6.90867187 20.39046875 6.12109375 20.3984375 C3.4489181 19.89648185 2.6969306 19.09274291 1 17 C0.56762695 15.09887695 0.56762695 15.09887695 0.48828125 12.98828125 C0.45283203 12.23095703 0.41738281 11.47363281 0.38085938 10.69335938 C0.35830078 9.90767578 0.33574219 9.12199219 0.3125 8.3125 C0.27833984 7.51521484 0.24417969 6.71792969 0.20898438 5.89648438 C0.12661896 3.93148096 0.06162933 1.96576304 0 0 Z " fill="#2F3336" transform="translate(102,39)"/>
<path d="M0 0 C4.56454251 0.54339792 7.9728176 1.79463821 12 4 C11.65418746 6.8529535 11.25060578 7.7985515 8.96875 9.6328125 C8.1540625 10.12523437 7.339375 10.61765625 6.5 11.125 C3.15349998 13.00498685 3.15349998 13.00498685 1 16 C2.98 16.33 4.96 16.66 7 17 C6.01 19.475 6.01 19.475 5 22 C3.34579778 21.46260944 1.70166705 20.89413992 0.0625 20.3125 C-0.85402344 19.99925781 -1.77054688 19.68601562 -2.71484375 19.36328125 C-5 18 -5 18 -5.81640625 15.35546875 C-5.87699219 14.57816406 -5.93757812 13.80085938 -6 13 C-5.36191406 12.59007812 -4.72382813 12.18015625 -4.06640625 11.7578125 C-3.24011719 11.21898437 -2.41382813 10.68015625 -1.5625 10.125 C-0.73878906 9.59132813 0.08492187 9.05765625 0.93359375 8.5078125 C3.11038871 7.16165694 3.11038871 7.16165694 4 5 C2.35 4.67 0.7 4.34 -1 4 C-0.67 2.68 -0.34 1.36 0 0 Z " fill="#2D3033" transform="translate(134,43)"/>
<path d="M0 0 C1.65 0 3.3 0 5 0 C5.08071788 2.79224073 5.14035408 5.58216566 5.1875 8.375 C5.22520508 9.56609375 5.22520508 9.56609375 5.26367188 10.78125 C5.29004405 12.85586148 5.15486462 14.93100865 5 17 C2 19 2 19 -0.6875 18.625 C-1.8321875 18.315625 -1.8321875 18.315625 -3 18 C-3.33 17.01 -3.66 16.02 -4 15 C-3.01 14.67 -2.02 14.34 -1 14 C-0.67 9.38 -0.34 4.76 0 0 Z " fill="#292C2F" transform="translate(114,39)"/>
<path d="M0 0 C0.8971875 -0.00386719 1.794375 -0.00773438 2.71875 -0.01171875 C3.57984375 -0.01042969 4.4409375 -0.00914062 5.328125 -0.0078125 C6.49456543 -0.00612061 6.49456543 -0.00612061 7.68457031 -0.00439453 C9.75 0.125 9.75 0.125 12.75 1.125 C12.75 1.785 12.75 2.445 12.75 3.125 C6.60910066 4.03476287 0.57204645 4.23518339 -5.625 4.25 C-6.82068604 4.25676758 -6.82068604 4.25676758 -8.04052734 4.26367188 C-11.36115404 4.25519548 -14.07870287 4.18209904 -17.25 3.125 C-17.25 2.465 -17.25 1.805 -17.25 1.125 C-11.46768583 0.12968363 -5.86043795 -0.02570368 0 0 Z " fill="#B7B8B8" transform="translate(112.25,197.875)"/>
<path d="M0 0 C1.65 0.33 3.3 0.66 5 1 C4.41509121 7.14154225 3.45933748 13.00679849 2 19 C0.35 19 -1.3 19 -3 19 C-2.48446121 12.50149789 -1.53332291 6.33773468 0 0 Z " fill="#282B2E" transform="translate(124,40)"/>
<path d="M0 0 C1.89551022 -0.05441656 3.7914792 -0.09298035 5.6875 -0.125 C6.74324219 -0.14820313 7.79898438 -0.17140625 8.88671875 -0.1953125 C12.02251859 0.00141271 14.17645373 0.66942346 17 2 C9.44967125 6.71895547 -1.51825264 5.11649741 -10 5.0625 C-11.36067544 5.05747487 -12.72135267 5.05291376 -14.08203125 5.04882812 C-17.38806725 5.03710459 -20.69401001 5.02069427 -24 5 C-24 4.67 -24 4.34 -24 4 C-15.09 3.67 -6.18 3.34 3 3 C3 2.34 3 1.68 3 1 C2.01 0.67 1.02 0.34 0 0 Z " fill="#C3C3C3" transform="translate(122,198)"/>
<path d="M0 0 C8.57142857 -0.28571429 8.57142857 -0.28571429 12 2 C2.6249185 8.25005433 -11.37535701 6.22882165 -22.1875 6.125 C-24.01627114 6.11494913 -25.84504762 6.10582701 -27.67382812 6.09765625 C-32.11601956 6.07581189 -36.55794953 6.04139842 -41 6 C-41 5.67 -41 5.34 -41 5 C-40.02764404 4.98018066 -39.05528809 4.96036133 -38.0534668 4.93994141 C-34.3947049 4.86301583 -30.73629653 4.77444451 -27.07788086 4.68261719 C-25.50405939 4.64468216 -23.93016163 4.60977234 -22.35620117 4.578125 C-13.39522609 4.39577129 -4.77471095 4.04331072 4 2 C2.68 1.34 1.36 0.68 0 0 Z " fill="#D6D6D6" transform="translate(134,198)"/>
<path d="M0 0 C2.5625 0.1875 2.5625 0.1875 4.5625 2.1875 C4.875 5.1875 4.875 5.1875 4.5625 8.1875 C1.5625 10.1875 1.5625 10.1875 -0.5 10 C-2.4375 9.1875 -2.4375 9.1875 -4.4375 6.1875 C-3.73509704 0.28731516 -3.73509704 0.28731516 0 0 Z " fill="#F5F5F5" transform="translate(90.4375,47.8125)"/>
<path d="M0 0 C1.27230469 0.00902344 2.54460937 0.01804688 3.85546875 0.02734375 C5.31919922 0.04474609 5.31919922 0.04474609 6.8125 0.0625 C6.8125 0.7225 6.8125 1.3825 6.8125 2.0625 C4.35470024 2.28376178 1.89722352 2.49000395 -0.5625 2.6875 C-1.61050781 2.78417969 -1.61050781 2.78417969 -2.6796875 2.8828125 C-4.51119111 3.02369739 -6.35062748 3.05011659 -8.1875 3.0625 C-8.8475 2.4025 -9.5075 1.7425 -10.1875 1.0625 C-6.62704823 -0.12431726 -3.74941663 -0.03439832 0 0 Z " fill="#ADB2B1" transform="translate(118.1875,198.9375)"/>
<path d="M0 0 C1.46373047 0.02707031 1.46373047 0.02707031 2.95703125 0.0546875 C3.69308594 0.07789063 4.42914063 0.10109375 5.1875 0.125 C5.1875 0.455 5.1875 0.785 5.1875 1.125 C2.8775 1.125 0.5675 1.125 -1.8125 1.125 C-1.8125 1.785 -1.8125 2.445 -1.8125 3.125 C-0.8225 3.455 0.1675 3.785 1.1875 4.125 C-7.38392857 4.41071429 -7.38392857 4.41071429 -10.8125 2.125 C-7.04027911 0.37336544 -4.145861 -0.09990027 0 0 Z " fill="#C5C5C5" transform="translate(96.8125,197.875)"/>
</svg>
